<svg xmlns="http://www.w3.org/2000/svg" width="480" height="143" viewBox="0 0 480 143" role="img" aria-label="Languages">
<style>
  .t { fill:#F0F0F0; font-family:'Segoe UI',system-ui,-apple-system,sans-serif; }
  .lg { fill:#9AA0A6; font-family:'Segoe UI',system-ui,-apple-system,sans-serif; }
  .rule { stroke:#3A3F46; fill:none; }
  .sw { stroke:#3A3F46; stroke-width:1; }
</style>
<text class="t" x="16" y="24" font-size="14" font-weight="700" letter-spacing="0.5">LANGUAGES</text>
<clipPath id="clip"><rect x="16" y="36" width="448" height="16"/></clipPath>
<g clip-path="url(#clip)">
<rect x="16.00" y="36" width="309.88" height="16" fill="#F0F0F0"/>
<rect x="325.88" y="36" width="123.00" height="16" fill="#C9CDD3"/>
<rect x="448.88" y="36" width="7.72" height="16" fill="#A2A7AF"/>
<rect x="456.60" y="36" width="6.83" height="16" fill="#7B8089"/>
<rect x="463.42" y="36" width="0.58" height="16" fill="#565B63"/>
</g>
<line class="rule" x1="325.88" y1="36" x2="325.88" y2="52" stroke-width="1.5"/>
<line class="rule" x1="448.88" y1="36" x2="448.88" y2="52" stroke-width="1.5"/>
<line class="rule" x1="456.60" y1="36" x2="456.60" y2="52" stroke-width="1.5"/>
<line class="rule" x1="463.42" y1="36" x2="463.42" y2="52" stroke-width="1.5"/>
<rect x="16" y="36" width="448" height="16" fill="none" stroke="#F0F0F0" stroke-width="1.5"/>
<rect class="sw" x="16" y="70" width="13" height="13" fill="#F0F0F0"/>
<text class="lg" x="34" y="80" font-size="12">Python <tspan opacity="0.7">69.2%</tspan></text>
<rect class="sw" x="240" y="70" width="13" height="13" fill="#C9CDD3"/>
<text class="lg" x="258" y="80" font-size="12">TypeScript <tspan opacity="0.7">27.5%</tspan></text>
<rect class="sw" x="16" y="91" width="13" height="13" fill="#A2A7AF"/>
<text class="lg" x="34" y="101" font-size="12">CSS <tspan opacity="0.7">1.7%</tspan></text>
<rect class="sw" x="240" y="91" width="13" height="13" fill="#7B8089"/>
<text class="lg" x="258" y="101" font-size="12">JavaScript <tspan opacity="0.7">1.5%</tspan></text>
<rect class="sw" x="16" y="112" width="13" height="13" fill="#565B63"/>
<text class="lg" x="34" y="122" font-size="12">Dockerfile <tspan opacity="0.7">0.1%</tspan></text>
</svg>