<svg xmlns="http://www.w3.org/2000/svg" width="480" height="143" viewBox="0 0 480 143" role="img" aria-label="Languages">
<style>
  .t { fill:#16181D; font-family:'Segoe UI',system-ui,-apple-system,sans-serif; }
  .lg { fill:#5B6169; font-family:'Segoe UI',system-ui,-apple-system,sans-serif; }
  .rule { stroke:#D5D9DE; fill:none; }
  .sw { stroke:#D5D9DE; stroke-width:1; }
</style>
<text class="t" x="16" y="24" font-size="14" font-weight="700" letter-spacing="0.5">LANGUAGES</text>
<clipPath id="clip"><rect x="16" y="36" width="448" height="16"/></clipPath>
<g clip-path="url(#clip)">
<rect x="16.00" y="36" width="321.68" height="16" fill="#16181D"/>
<rect x="337.68" y="36" width="113.40" height="16" fill="#3D4148"/>
<rect x="451.08" y="36" width="7.86" height="16" fill="#626770"/>
<rect x="458.94" y="36" width="4.75" height="16" fill="#8A8F98"/>
<rect x="463.69" y="36" width="0.31" height="16" fill="#B0B5BD"/>
</g>
<line class="rule" x1="337.68" y1="36" x2="337.68" y2="52" stroke-width="1.5"/>
<line class="rule" x1="451.08" y1="36" x2="451.08" y2="52" stroke-width="1.5"/>
<line class="rule" x1="458.94" y1="36" x2="458.94" y2="52" stroke-width="1.5"/>
<line class="rule" x1="463.69" y1="36" x2="463.69" y2="52" stroke-width="1.5"/>
<rect x="16" y="36" width="448" height="16" fill="none" stroke="#16181D" stroke-width="1.5"/>
<rect class="sw" x="16" y="70" width="13" height="13" fill="#16181D"/>
<text class="lg" x="34" y="80" font-size="12">Python <tspan opacity="0.7">71.8%</tspan></text>
<rect class="sw" x="240" y="70" width="13" height="13" fill="#3D4148"/>
<text class="lg" x="258" y="80" font-size="12">TypeScript <tspan opacity="0.7">25.3%</tspan></text>
<rect class="sw" x="16" y="91" width="13" height="13" fill="#626770"/>
<text class="lg" x="34" y="101" font-size="12">CSS <tspan opacity="0.7">1.8%</tspan></text>
<rect class="sw" x="240" y="91" width="13" height="13" fill="#8A8F98"/>
<text class="lg" x="258" y="101" font-size="12">JavaScript <tspan opacity="0.7">1.1%</tspan></text>
<rect class="sw" x="16" y="112" width="13" height="13" fill="#B0B5BD"/>
<text class="lg" x="34" y="122" font-size="12">Dockerfile <tspan opacity="0.7">0.1%</tspan></text>
</svg>